<svg id="logo" xmlns="http://www.w3.org/2000/svg" xmlns:xlink="http://www.w3.org/1999/xlink" width="222.5" height="203.4" viewBox="0 0 2225 2034">
  <metadata><?xpacket begin="﻿" id="W5M0MpCehiHzreSzNTczkc9d"?>
<x:xmpmeta xmlns:x="adobe:ns:meta/" x:xmptk="Adobe XMP Core 5.6-c140 79.160451, 2017/05/06-01:08:21        ">
   <rdf:RDF xmlns:rdf="http://www.w3.org/1999/02/22-rdf-syntax-ns#">
      <rdf:Description rdf:about=""/>
   </rdf:RDF>
</x:xmpmeta>
                                                                                                    
                                                                                                    
                                                                                                    
                                                                                                    
                                                                                                    
                                                                                                    
                                                                                                    
                                                                                                    
                                                                                                    
                                                                                                    
                                                                                                    
                                                                                                    
                                                                                                    
                                                                                                    
                                                                                                    
                                                                                                    
                                                                                                    
                                                                                                    
                                                                                                    
                                                                                                    
                           
<?xpacket end="w"?></metadata>
<defs>
    <style>
      .cls-1, .cls-2, .cls-4, .cls-5, .cls-6, .cls-7 {
        fill: #272a48;
      }

      .cls-1, .cls-2, .cls-3, .cls-4, .cls-5, .cls-6, .cls-7, .cls-8 {
        fill-rule: evenodd;
      }

      .cls-1 {
        filter: url(#filter);
      }

      .cls-2 {
        filter: url(#filter-2);
      }

      .cls-3 {
        fill: #d0261d;
        filter: url(#filter-3);
      }

      .cls-4 {
        filter: url(#filter-4);
      }

      .cls-5 {
        filter: url(#filter-5);
      }

      .cls-6 {
        filter: url(#filter-6);
      }

      .cls-7 {
        filter: url(#filter-7);
      }

      .cls-8 {
        fill: #fff;
        filter: url(#filter-8);
      }
    </style>
    <filter id="filter" x="244" y="88" width="768.44" height="805" filterUnits="userSpaceOnUse">
      <feFlood result="flood" flood-color="#e71e1e"/>
      <feComposite result="composite" operator="in" in2="SourceGraphic"/>
      <feBlend result="blend" in2="SourceGraphic"/>
    </filter>
    <filter id="filter-2" x="756.438" y="88" width="416.442" height="371.906" filterUnits="userSpaceOnUse">
      <feFlood result="flood" flood-color="#e71e1e"/>
      <feComposite result="composite" operator="in" in2="SourceGraphic"/>
      <feBlend result="blend" in2="SourceGraphic"/>
    </filter>
    <filter id="filter-3" x="1198.53" y="1158" width="775.47" height="788" filterUnits="userSpaceOnUse">
      <feFlood result="flood" flood-color="#27aee5"/>
      <feComposite result="composite" operator="in" in2="SourceGraphic"/>
      <feBlend result="blend" in2="SourceGraphic"/>
    </filter>
    <filter id="filter-4" x="1031.28" y="1507.44" width="473.47" height="438.56" filterUnits="userSpaceOnUse">
      <feFlood result="flood" flood-color="#27aee5"/>
      <feComposite result="composite" operator="in" in2="SourceGraphic"/>
      <feBlend result="blend" in2="SourceGraphic"/>
    </filter>
    <filter id="filter-5" x="1209.53" y="88" width="764.47" height="805" filterUnits="userSpaceOnUse">
      <feFlood result="flood" flood-color="#9fcf53"/>
      <feComposite result="composite" operator="in" in2="SourceGraphic"/>
      <feBlend result="blend" in2="SourceGraphic"/>
    </filter>
    <filter id="filter-6" x="244" y="1161" width="361.156" height="354.16" filterUnits="userSpaceOnUse">
      <feFlood result="flood" flood-color="#c3117d"/>
      <feComposite result="composite" operator="in" in2="SourceGraphic"/>
      <feBlend result="blend" in2="SourceGraphic"/>
    </filter>
    <filter id="filter-7" x="619.625" y="1566.38" width="377.813" height="379.62" filterUnits="userSpaceOnUse">
      <feFlood result="flood" flood-color="#f7cb1c"/>
      <feComposite result="composite" operator="in" in2="SourceGraphic"/>
      <feBlend result="blend" in2="SourceGraphic"/>
    </filter>
    <filter id="filter-8" x="148.938" y="929.812" width="1928.002" height="190.908" filterUnits="userSpaceOnUse">
      <feFlood result="flood" flood-color="#2a2a2a"/>
      <feComposite result="composite" operator="in" in2="SourceGraphic"/>
      <feBlend result="blend" in2="SourceGraphic"/>
    </filter>
  </defs>
  <path id="left_up_line2" class="cls-1" d="M353,893L1012.44,89.932,900.354,88,244,893H353Z"/>
  <path id="left_up_line" class="cls-2" d="M868.523,459.9L1172.89,89.932,1060.81,88,756.439,457.971Z"/>
  <path id="right_bottom_line2" class="cls-3" d="M1307.72,1946L1974,1159l-115-1-660.46,787.03Z"/>
  <path id="right_bottom_line" class="cls-4" d="M1147.24,1945.03l357.51-435.65-112.09-1.94L1031.29,1946Z"/>
  <path id="right_up_line" class="cls-5" d="M1876,893L1209.54,89.932,1321.62,88,1974,892Z"/>
  <path id="left_bottom_line2" class="cls-6" d="M537.507,1515.17L244,1161H351l254.144,310.7Z"/>
  <path id="left_bottom_line" class="cls-7" d="M888.253,1946L619.637,1617.57l68.6-51.2,309.2,378.66Z"/>
  <path id="MAXIMCODE" class="cls-8" d="M166.168,1116.23l17.473-129.262,64.15,129.262h4.493l63.4-128.264,17.473,128.264h17.722l-25.71-179.171h-2.745L250.038,1084.04,177.151,937.059h-2.746l-25.46,179.171h17.223Zm333.98-186.408L415.529,1116.23H435.5l27.957-61.14h77.38l28.206,61.14h19.22l-83.62-186.408h-4.493Zm32.7,107.058H471.692l30.7-67.38Zm171.981-12.98-57.161,92.33h20.967l46.678-75.11,46.677,75.11h20.968l-56.912-92.33,53.417-86.841H758.744l-43.432,69.871-42.934-69.871H651.411Zm150.515,92.33h17.972V937.059H855.343V1116.23Zm113.074,0L985.89,986.968l64.15,129.262h4.49l63.41-128.264,17.47,128.264h17.72l-25.71-179.171h-2.75l-72.38,146.981L979.4,937.059h-2.746l-25.46,179.171h17.223ZM1367.05,942.3q-20.475-9.732-46.18-9.732a98.523,98.523,0,0,0-48.05,12.228,89.265,89.265,0,0,0-34.95,33.813,91.676,91.676,0,0,0-12.6,47.042q0,41.175,27.2,68.12t69.9,26.95q24.45,0,44.68-9.1a85.242,85.242,0,0,0,33.45-26.58l-13.98-10.73q-25.215,29.445-63.16,29.45-33.945,0-56.53-21.84-22.605-21.84-22.59-54.4,0-32.565,23.09-55.026t55.04-22.459q39.18,0,64.15,30.944l13.98-10.731A85.5,85.5,0,0,0,1367.05,942.3Zm119.18,132.011a90.644,90.644,0,0,0,34.58,34.06,95.333,95.333,0,0,0,47.55,12.35,93.954,93.954,0,0,0,47.42-12.47,90.733,90.733,0,0,0,34.33-34.32,95.864,95.864,0,0,0-.13-94.823,90.107,90.107,0,0,0-34.7-34.188,96.077,96.077,0,0,0-47.67-12.352,93.287,93.287,0,0,0-47.3,12.477,90.662,90.662,0,0,0-34.2,34.437,95.31,95.31,0,0,0-12.48,47.909A91.864,91.864,0,0,0,1486.23,1074.31Zm135.54,7.24q-22.08,21.705-53.54,21.71t-53.66-22.21q-22.23-22.215-22.22-54.28t21.59-54.4q21.585-22.331,53.79-22.334,31.455,0,53.79,22.21,22.35,22.213,22.34,54.405Q1643.86,1059.83,1621.77,1081.55Zm178.6,34.68q34.935,0,53.54-10.48t29.46-31.07a92.847,92.847,0,0,0,10.85-43.92q0-23.325-6.99-40.8a80.946,80.946,0,0,0-19.96-29.571,79.659,79.659,0,0,0-30.83-17.718q-17.85-5.615-56.04-5.614h-37.19V1116.23h57.16Zm-39.94-161.7h12.73q32.205,0,48.8,3.369a66.852,66.852,0,0,1,28.83,13.1,64.15,64.15,0,0,1,18.85,24.705,80.13,80.13,0,0,1,6.61,32.688q0,17.73-5.74,31.45a62.7,62.7,0,0,1-16.72,23.33,57.028,57.028,0,0,1-25.59,12.85q-14.6,3.24-47.05,3.24h-20.72V954.527Zm213.67,161.7h102.09v-17.72h-84.12v-70.37h84.12v-17.47h-84.12V954.776h84.87V937.059H1974.1V1116.23Z"/>
</svg>
